<svg width="286" height="203" viewBox="0 0 286 203" fill="none" xmlns="http://www.w3.org/2000/svg">
<path d="M4.54419 73.4644L5 37L123 38V72.6377C123 74.7264 121.914 76.6648 120.132 77.7552L78.6093 103.17C70.2146 108.308 59.689 108.471 51.1392 103.596L7.57153 78.7515C5.67616 77.6707 4.51692 75.6462 4.54419 73.4644Z" fill="#C8C1D5" stroke="#1E2022"/>
<path d="M54.8146 68.5454L7.4168 40.836C4.10727 38.9012 4.11667 34.1149 7.43376 32.1931L53.0617 5.75788C59.2159 2.19236 66.8007 2.16347 72.9819 5.68198L120.536 32.7512C123.867 34.6474 123.913 39.4324 120.62 41.393L75.1382 68.4654C68.883 72.1887 61.0989 72.2193 54.8146 68.5454Z" fill="#C8C1D5" stroke="#1E2022"/>
<path d="M160.544 73.4644L161 37L279 38V72.6377C279 74.7264 277.914 76.6648 276.132 77.7552L234.609 103.17C226.215 108.308 215.689 108.471 207.139 103.596L163.572 78.7515C161.676 77.6707 160.517 75.6462 160.544 73.4644Z" fill="#C8C1D5" stroke="#1E2022"/>
<path d="M210.815 68.5454L163.417 40.836C160.107 38.9012 160.117 34.1149 163.434 32.1931L209.062 5.75788C215.216 2.19236 222.801 2.16347 228.982 5.68198L276.536 32.7512C279.867 34.6474 279.913 39.4324 276.62 41.393L231.138 68.4654C224.883 72.1887 217.099 72.2193 210.815 68.5454Z" fill="#C8C1D5" stroke="#1E2022"/>
<path d="M82.5442 119.464L83 83L201 84V118.638C201 120.726 199.914 122.665 198.132 123.755L156.609 149.17C148.215 154.308 137.689 154.471 129.139 149.596L85.5715 124.752C83.6762 123.671 82.5169 121.646 82.5442 119.464Z" fill="#C8C1D5" stroke="#1E2022"/>
<path d="M132.815 114.545L85.4168 86.836C82.1073 84.9012 82.1167 80.1149 85.4338 78.1931L131.062 51.7579C137.216 48.1924 144.801 48.1635 150.982 51.682L198.536 78.7512C201.867 80.6474 201.913 85.4324 198.62 87.393L153.138 114.465C146.883 118.189 139.099 118.219 132.815 114.545Z" fill="#C8C1D5" stroke="#1E2022"/>
<path d="M162.544 164.464L163 128L281 129V163.638C281 165.726 279.914 167.665 278.132 168.755L236.609 194.17C228.215 199.308 217.689 199.471 209.139 194.596L165.572 169.752C163.676 168.671 162.517 166.646 162.544 164.464Z" fill="#C8C1D5" stroke="#1E2022"/>
<path d="M212.815 159.545L165.417 131.836C162.107 129.901 162.117 125.115 165.434 123.193L211.062 96.7579C217.216 93.1924 224.801 93.1635 230.982 96.682L278.536 123.751C281.867 125.647 281.913 130.432 278.62 132.393L233.138 159.465C226.883 163.189 219.099 163.219 212.815 159.545Z" fill="#C8C1D5" stroke="#1E2022"/>
</svg>
