<svg width="210" height="368" viewBox="0 0 210 368" fill="none" xmlns="http://www.w3.org/2000/svg">
<path d="M1 184H55" stroke="#1E2022"/>
<path d="M55 184H155" stroke="#1E2022"/>
<path d="M55 184L155 184" stroke="#1E2022"/>
<path d="M104.035 364.449L55.2138 184.787C55.0738 184.272 55.0738 183.728 55.2138 183.213L104.035 3.55122C104.302 2.56753 105.698 2.56753 105.965 3.55122L154.786 183.213C154.926 183.728 154.926 184.272 154.786 184.787L105.965 364.449C105.698 365.432 104.302 365.432 104.035 364.449Z" stroke="#1E2022"/>
<path d="M106.741 364.92L208.166 185.476C208.683 184.56 208.683 183.44 208.166 182.524L106.741 3.08045C105.976 1.72594 104.024 1.72595 103.259 3.08046L1.83435 182.524C1.3166 183.44 1.3166 184.56 1.83435 185.476L103.259 364.92C104.024 366.274 105.976 366.274 106.741 364.92Z" stroke="#1E2022"/>
<path d="M155 184L209 184" stroke="#1E2022"/>
</svg>
